<svg xmlns="http://www.w3.org/2000/svg" xmlns:xlink="http://www.w3.org/1999/xlink" width="500" zoomAndPan="magnify" viewBox="0 0 375 374.999991" height="500" preserveAspectRatio="xMidYMid meet" version="1.0"><defs><g/><clipPath id="8c4dbbdcf1"><path d="M 79.53125 166.707031 L 187.410156 166.707031 L 187.410156 223.425781 L 79.53125 223.425781 Z M 79.53125 166.707031 " clip-rule="nonzero"/></clipPath></defs><rect x="-37.5" width="450" fill="#ffffff" y="-37.499999" height="449.999989" fill-opacity="1"/><rect x="-37.5" width="450" fill="#c15f3c" y="-37.499999" height="449.999989" fill-opacity="1"/><g fill="#f4f3ee" fill-opacity="1"><g transform="translate(142.635874, 209.999986)"><g><path d="M 19.203125 -31.375 C 21.835938 -31.375 23.945312 -30.84375 25.53125 -29.78125 C 27.113281 -28.726562 28.253906 -27.289062 28.953125 -25.46875 C 29.648438 -23.644531 30 -21.632812 30 -19.4375 L 30 -1.796875 C 30 -1.316406 29.816406 -0.894531 29.453125 -0.53125 C 29.097656 -0.175781 28.679688 0 28.203125 0 C 27.640625 0 27.195312 -0.175781 26.875 -0.53125 C 26.5625 -0.894531 26.40625 -1.316406 26.40625 -1.796875 L 26.40625 -19.265625 C 26.40625 -20.859375 26.144531 -22.316406 25.625 -23.640625 C 25.101562 -24.960938 24.25 -26.019531 23.0625 -26.8125 C 21.882812 -27.613281 20.335938 -28.015625 18.421875 -28.015625 C 16.703125 -28.015625 15.070312 -27.613281 13.53125 -26.8125 C 11.988281 -26.019531 10.738281 -24.960938 9.78125 -23.640625 C 8.820312 -22.316406 8.34375 -20.859375 8.34375 -19.265625 L 8.34375 -1.796875 C 8.34375 -1.316406 8.160156 -0.894531 7.796875 -0.53125 C 7.441406 -0.175781 7.023438 0 6.546875 0 C 5.984375 0 5.539062 -0.175781 5.21875 -0.53125 C 4.894531 -0.894531 4.734375 -1.316406 4.734375 -1.796875 L 4.734375 -28.6875 C 4.734375 -29.164062 4.90625 -29.582031 5.25 -29.9375 C 5.59375 -30.300781 6.023438 -30.484375 6.546875 -30.484375 C 7.054688 -30.484375 7.484375 -30.300781 7.828125 -29.9375 C 8.171875 -29.582031 8.34375 -29.164062 8.34375 -28.6875 L 8.34375 -23.640625 L 6.953125 -21.484375 C 7.035156 -22.765625 7.445312 -23.992188 8.1875 -25.171875 C 8.925781 -26.347656 9.875 -27.40625 11.03125 -28.34375 C 12.195312 -29.289062 13.488281 -30.03125 14.90625 -30.5625 C 16.332031 -31.101562 17.765625 -31.375 19.203125 -31.375 Z M 19.203125 -31.375 "/></g></g></g><g fill="#f4f3ee" fill-opacity="1"><g transform="translate(177.315841, 209.999986)"><g><path d="M 27.65625 -30.484375 C 28.175781 -30.484375 28.601562 -30.300781 28.9375 -29.9375 C 29.28125 -29.582031 29.453125 -29.164062 29.453125 -28.6875 L 29.453125 -11.765625 C 29.453125 -7.796875 28.332031 -4.769531 26.09375 -2.6875 C 23.851562 -0.613281 20.835938 0.421875 17.046875 0.421875 C 13.285156 0.421875 10.289062 -0.613281 8.0625 -2.6875 C 5.84375 -4.769531 4.734375 -7.796875 4.734375 -11.765625 L 4.734375 -28.6875 C 4.734375 -29.164062 4.90625 -29.582031 5.25 -29.9375 C 5.59375 -30.300781 6.023438 -30.484375 6.546875 -30.484375 C 7.054688 -30.484375 7.484375 -30.300781 7.828125 -29.9375 C 8.171875 -29.582031 8.34375 -29.164062 8.34375 -28.6875 L 8.34375 -11.765625 C 8.34375 -8.878906 9.109375 -6.6875 10.640625 -5.1875 C 12.179688 -3.6875 14.316406 -2.9375 17.046875 -2.9375 C 19.804688 -2.9375 21.960938 -3.6875 23.515625 -5.1875 C 25.078125 -6.6875 25.859375 -8.878906 25.859375 -11.765625 L 25.859375 -28.6875 C 25.859375 -29.164062 26.015625 -29.582031 26.328125 -29.9375 C 26.648438 -30.300781 27.09375 -30.484375 27.65625 -30.484375 Z M 27.65625 -30.484375 "/></g></g></g><g fill="#f4f3ee" fill-opacity="1"><g transform="translate(211.455808, 209.999986)"><g><path d="M 19.3125 -31.375 C 22.039062 -31.375 24.453125 -30.691406 26.546875 -29.328125 C 28.648438 -27.972656 30.320312 -26.101562 31.5625 -23.71875 C 32.800781 -21.34375 33.421875 -18.597656 33.421875 -15.484375 C 33.421875 -12.441406 32.800781 -9.695312 31.5625 -7.25 C 30.320312 -4.8125 28.640625 -2.894531 26.515625 -1.5 C 24.398438 -0.101562 22.019531 0.59375 19.375 0.59375 C 17.976562 0.59375 16.648438 0.375 15.390625 -0.0625 C 14.128906 -0.5 12.976562 -1.085938 11.9375 -1.828125 C 10.894531 -2.566406 9.972656 -3.4375 9.171875 -4.4375 C 8.378906 -5.4375 7.742188 -6.519531 7.265625 -7.6875 L 8.34375 -8.453125 L 8.34375 -1.6875 C 8.34375 -1.164062 8.171875 -0.734375 7.828125 -0.390625 C 7.484375 -0.046875 7.054688 0.125 6.546875 0.125 C 6.023438 0.125 5.59375 -0.046875 5.25 -0.390625 C 4.90625 -0.734375 4.734375 -1.164062 4.734375 -1.6875 L 4.734375 -42.546875 C 4.734375 -43.054688 4.894531 -43.484375 5.21875 -43.828125 C 5.539062 -44.171875 5.984375 -44.34375 6.546875 -44.34375 C 7.054688 -44.34375 7.484375 -44.171875 7.828125 -43.828125 C 8.171875 -43.484375 8.34375 -43.054688 8.34375 -42.546875 L 8.34375 -22.4375 L 7.5 -22.921875 C 7.894531 -24.160156 8.484375 -25.289062 9.265625 -26.3125 C 10.046875 -27.332031 10.957031 -28.222656 12 -28.984375 C 13.039062 -29.742188 14.179688 -30.332031 15.421875 -30.75 C 16.660156 -31.164062 17.957031 -31.375 19.3125 -31.375 Z M 19.015625 -28.015625 C 16.859375 -28.015625 14.957031 -27.472656 13.3125 -26.390625 C 11.675781 -25.316406 10.390625 -23.835938 9.453125 -21.953125 C 8.515625 -20.078125 8.046875 -17.921875 8.046875 -15.484375 C 8.046875 -13.078125 8.515625 -10.90625 9.453125 -8.96875 C 10.390625 -7.03125 11.675781 -5.507812 13.3125 -4.40625 C 14.957031 -3.3125 16.859375 -2.765625 19.015625 -2.765625 C 21.140625 -2.765625 23.007812 -3.320312 24.625 -4.4375 C 26.25 -5.5625 27.539062 -7.09375 28.5 -9.03125 C 29.457031 -10.96875 29.9375 -13.117188 29.9375 -15.484375 C 29.9375 -17.921875 29.457031 -20.078125 28.5 -21.953125 C 27.539062 -23.835938 26.25 -25.316406 24.625 -26.390625 C 23.007812 -27.472656 21.140625 -28.015625 19.015625 -28.015625 Z M 19.015625 -28.015625 "/></g></g></g><g fill="#f4f3ee" fill-opacity="1"><g transform="translate(247.815768, 209.999986)"><g><path d="M 8.21875 -1.796875 C 8.21875 -1.316406 8.035156 -0.894531 7.671875 -0.53125 C 7.316406 -0.175781 6.898438 0 6.421875 0 C 5.898438 0 5.46875 -0.175781 5.125 -0.53125 C 4.789062 -0.894531 4.625 -1.316406 4.625 -1.796875 L 4.625 -29.40625 C 4.625 -29.882812 4.789062 -30.300781 5.125 -30.65625 C 5.46875 -31.019531 5.898438 -31.203125 6.421875 -31.203125 C 6.941406 -31.203125 7.367188 -31.019531 7.703125 -30.65625 C 8.046875 -30.300781 8.21875 -29.882812 8.21875 -29.40625 Z M 6.421875 -35.21875 C 5.585938 -35.21875 4.957031 -35.40625 4.53125 -35.78125 C 4.113281 -36.164062 3.90625 -36.71875 3.90625 -37.4375 L 3.90625 -38.03125 C 3.90625 -38.757812 4.132812 -39.3125 4.59375 -39.6875 C 5.050781 -40.0625 5.679688 -40.25 6.484375 -40.25 C 7.242188 -40.25 7.832031 -40.0625 8.25 -39.6875 C 8.675781 -39.3125 8.890625 -38.757812 8.890625 -38.03125 L 8.890625 -37.4375 C 8.890625 -36.71875 8.675781 -36.164062 8.25 -35.78125 C 7.832031 -35.40625 7.222656 -35.21875 6.421875 -35.21875 Z M 6.421875 -35.21875 "/></g></g></g><g fill="#f4f3ee" fill-opacity="1"><g transform="translate(260.655752, 209.999986)"><g><path d="M 3 -4.859375 C 2.675781 -5.335938 2.523438 -5.804688 2.546875 -6.265625 C 2.566406 -6.722656 2.816406 -7.09375 3.296875 -7.375 C 3.617188 -7.65625 3.988281 -7.773438 4.40625 -7.734375 C 4.832031 -7.703125 5.222656 -7.503906 5.578125 -7.140625 C 6.660156 -5.742188 7.96875 -4.613281 9.5 -3.75 C 11.039062 -2.882812 12.875 -2.453125 15 -2.453125 C 16.125 -2.453125 17.234375 -2.640625 18.328125 -3.015625 C 19.429688 -3.398438 20.34375 -3.984375 21.0625 -4.765625 C 21.78125 -5.546875 22.140625 -6.535156 22.140625 -7.734375 C 22.140625 -8.972656 21.78125 -9.972656 21.0625 -10.734375 C 20.34375 -11.492188 19.410156 -12.09375 18.265625 -12.53125 C 17.128906 -12.976562 15.921875 -13.363281 14.640625 -13.6875 C 13.273438 -14.039062 11.953125 -14.445312 10.671875 -14.90625 C 9.398438 -15.363281 8.269531 -15.941406 7.28125 -16.640625 C 6.300781 -17.347656 5.507812 -18.203125 4.90625 -19.203125 C 4.3125 -20.203125 4.015625 -21.421875 4.015625 -22.859375 C 4.015625 -24.535156 4.472656 -26.015625 5.390625 -27.296875 C 6.316406 -28.578125 7.566406 -29.578125 9.140625 -30.296875 C 10.722656 -31.015625 12.515625 -31.375 14.515625 -31.375 C 15.515625 -31.375 16.59375 -31.242188 17.75 -30.984375 C 18.914062 -30.722656 20.054688 -30.289062 21.171875 -29.6875 C 22.296875 -29.09375 23.300781 -28.273438 24.1875 -27.234375 C 24.539062 -26.878906 24.71875 -26.46875 24.71875 -26 C 24.71875 -25.539062 24.519531 -25.132812 24.125 -24.78125 C 23.800781 -24.539062 23.425781 -24.421875 23 -24.421875 C 22.582031 -24.421875 22.234375 -24.582031 21.953125 -24.90625 C 20.992188 -25.976562 19.851562 -26.796875 18.53125 -27.359375 C 17.21875 -27.921875 15.800781 -28.203125 14.28125 -28.203125 C 13.125 -28.203125 12.035156 -28.007812 11.015625 -27.625 C 9.992188 -27.25 9.140625 -26.679688 8.453125 -25.921875 C 7.773438 -25.160156 7.4375 -24.160156 7.4375 -22.921875 C 7.519531 -21.765625 7.929688 -20.820312 8.671875 -20.09375 C 9.410156 -19.375 10.390625 -18.773438 11.609375 -18.296875 C 12.828125 -17.816406 14.195312 -17.378906 15.71875 -16.984375 C 17 -16.660156 18.226562 -16.28125 19.40625 -15.84375 C 20.59375 -15.40625 21.632812 -14.851562 22.53125 -14.1875 C 23.425781 -13.53125 24.144531 -12.703125 24.6875 -11.703125 C 25.226562 -10.703125 25.5 -9.441406 25.5 -7.921875 C 25.5 -6.160156 25.007812 -4.640625 24.03125 -3.359375 C 23.050781 -2.078125 21.738281 -1.097656 20.09375 -0.421875 C 18.457031 0.253906 16.640625 0.59375 14.640625 0.59375 C 12.484375 0.59375 10.394531 0.175781 8.375 -0.65625 C 6.351562 -1.5 4.5625 -2.898438 3 -4.859375 Z M 3 -4.859375 "/></g></g></g><g clip-path="url(#8c4dbbdcf1)"><path fill="#f4f3ee" d="M 89.894531 199.355469 C 89.894531 182.898438 120.355469 169.554688 157.929688 169.554688 C 168.492188 169.554688 178.492188 170.609375 187.410156 172.492188 C 176.210938 168.941406 162.445312 166.847656 147.566406 166.847656 C 109.992188 166.847656 79.53125 180.1875 79.53125 196.644531 C 79.53125 208.476562 95.273438 218.695312 118.085938 223.507812 C 101.003906 218.09375 89.894531 209.292969 89.894531 199.355469 " fill-opacity="1" fill-rule="nonzero"/></g><path fill="#f4f3ee" d="M 125.535156 159.214844 C 128.183594 162.074219 134.3125 161.050781 134.398438 157.730469 C 134.457031 155.296875 130.617188 153.144531 126.949219 154.363281 C 124.03125 155.613281 124.363281 157.953125 125.535156 159.214844 " fill-opacity="1" fill-rule="nonzero"/><path fill="#f4f3ee" d="M 109.128906 213.636719 C 108.558594 214.984375 110.75 216.714844 113.109375 217.542969 C 115.882812 218.519531 118.621094 218.246094 117.726562 216.617188 C 116.558594 214.496094 110.566406 211.734375 109.128906 213.636719 " fill-opacity="1" fill-rule="nonzero"/><path fill="#f4f3ee" d="M 112.023438 202.203125 C 111.84375 198.53125 107.433594 195.410156 104.441406 197.851562 C 102.390625 200.027344 103.796875 203.003906 105.445312 204.417969 C 108.445312 206.996094 112.195312 205.730469 112.023438 202.203125 " fill-opacity="1" fill-rule="nonzero"/><path fill="#f4f3ee" d="M 122.617188 193.679688 C 122.675781 190.058594 118.726562 187.355469 114.964844 189.628906 C 111.835938 191.988281 112.574219 195.261719 114.097656 196.835938 C 117.136719 199.972656 122.550781 197.96875 122.617188 193.679688 " fill-opacity="1" fill-rule="nonzero"/><path fill="#f4f3ee" d="M 128.53125 174.363281 C 128.539062 174.289062 128.542969 174.21875 128.550781 174.148438 C 125.164062 174.867188 121.917969 175.714844 118.835938 176.683594 C 118.871094 176.738281 118.898438 176.792969 118.933594 176.839844 C 121.507812 180.542969 127.878906 178.898438 128.53125 174.363281 " fill-opacity="1" fill-rule="nonzero"/><path fill="#f4f3ee" d="M 110.984375 152.953125 C 108.621094 154.277344 108.347656 156.105469 108.910156 156.984375 C 110.257812 159.089844 115.609375 157.316406 116.15625 154.582031 C 116.535156 152.699219 113.921875 151.539062 110.984375 152.953125 " fill-opacity="1" fill-rule="nonzero"/><path fill="#f4f3ee" d="M 112.960938 165.488281 C 115.0625 168.582031 121.269531 166.75 121.941406 162.839844 C 122.429688 159.984375 119.050781 157.847656 115.253906 159.636719 C 112.140625 161.414062 112.035156 164.128906 112.960938 165.488281 " fill-opacity="1" fill-rule="nonzero"/><path fill="#f4f3ee" d="M 98.597656 204.683594 C 98.546875 204.738281 98.492188 204.824219 98.449219 204.886719 C 97.652344 206.640625 99.644531 209.265625 101.316406 210.570312 C 103.730469 212.453125 105.9375 212.339844 105.769531 210.339844 C 105.5 207.085938 100.203125 202.910156 98.597656 204.683594 " fill-opacity="1" fill-rule="nonzero"/><path fill="#f4f3ee" d="M 119.035156 151.933594 C 121.449219 153.578125 126.859375 152.429688 126.460938 150.355469 C 126.1875 148.941406 122.664062 148.003906 119.734375 149.003906 C 117.480469 149.949219 118.109375 151.300781 119.035156 151.933594 " fill-opacity="1" fill-rule="nonzero"/><path fill="#f4f3ee" d="M 106.242188 185.089844 C 108.640625 188.53125 114.300781 186.683594 115.148438 182.179688 C 115.414062 180.777344 115.054688 179.335938 114.265625 178.257812 C 112.964844 178.746094 111.703125 179.257812 110.484375 179.792969 C 108.667969 180.585938 106.980469 181.417969 105.414062 182.277344 C 105.417969 183.382812 105.75 184.382812 106.242188 185.089844 " fill-opacity="1" fill-rule="nonzero"/><path fill="#f4f3ee" d="M 103.304688 191.613281 C 103.835938 188.785156 102.453125 186.15625 100.628906 185.273438 C 98.753906 186.625 97.152344 188.035156 95.84375 189.484375 C 95.835938 190.972656 96.339844 192.386719 96.914062 193.261719 C 98.996094 196.4375 102.578125 195.511719 103.304688 191.613281 " fill-opacity="1" fill-rule="nonzero"/><path fill="#f4f3ee" d="M 93.269531 193.046875 C 92.347656 194.710938 91.785156 196.417969 91.605469 198.144531 C 91.875 198.816406 92.175781 199.425781 92.460938 199.894531 C 93.898438 202.269531 95.519531 202.78125 96 201.007812 C 96.628906 198.671875 94.972656 194.570312 93.269531 193.046875 " fill-opacity="1" fill-rule="nonzero"/><path fill="#f4f3ee" d="M 114.210938 207.671875 C 112.652344 209.359375 114.097656 211.527344 116.394531 212.652344 C 119.273438 214.058594 123.1875 213.652344 122.277344 210.730469 C 121.449219 208.078125 116.882812 205.523438 114.210938 207.671875 " fill-opacity="1" fill-rule="nonzero"/><path fill="#f4f3ee" d="M 112.796875 148.605469 C 112.992188 148.699219 113.359375 148.75 113.46875 148.761719 C 115.734375 149.042969 119.09375 148.015625 118.632812 147.390625 C 118.296875 146.929688 115.894531 147.136719 113.308594 148.085938 C 112.816406 148.28125 112.464844 148.441406 112.796875 148.605469 " fill-opacity="1" fill-rule="nonzero"/><path fill="#f4f3ee" d="M 127.710938 182.070312 C 124.316406 184.050781 124.59375 187.425781 125.871094 189.1875 C 128.46875 192.765625 133.992188 191.421875 134.691406 187.035156 C 135.273438 183.398438 131.757812 180.214844 127.710938 182.070312 " fill-opacity="1" fill-rule="nonzero"/><path fill="#f4f3ee" d="M 93.804688 170.800781 C 96.363281 168.785156 97.761719 163.289062 96.214844 163.140625 C 95.835938 163.105469 95.453125 163.441406 95.199219 163.660156 C 93.714844 165.132812 92.558594 167.722656 92.296875 169.375 C 92.03125 171.074219 92.675781 171.683594 93.804688 170.800781 " fill-opacity="1" fill-rule="nonzero"/><path fill="#f4f3ee" d="M 125.367188 214.460938 C 124.289062 215.667969 126.175781 216.894531 128.539062 217.335938 C 130.433594 217.6875 134.296875 217.65625 133.3125 216.289062 C 132.335938 214.921875 127.503906 212.789062 125.367188 214.460938 " fill-opacity="1" fill-rule="nonzero"/><path fill="#f4f3ee" d="M 130.289062 204.183594 C 129.953125 201.066406 126.351562 198.777344 123.128906 200.707031 C 120.738281 202.527344 121.324219 205.140625 123.273438 206.621094 C 126.214844 208.855469 130.679688 207.832031 130.289062 204.183594 " fill-opacity="1" fill-rule="nonzero"/><path fill="#f4f3ee" d="M 111.6875 150.144531 C 111.875 149.375 110.542969 149.234375 108.609375 150.207031 C 106.78125 151.1875 106.988281 151.84375 107.046875 151.964844 C 107.546875 152.980469 111.363281 151.484375 111.6875 150.144531 " fill-opacity="1" fill-rule="nonzero"/><path fill="#f4f3ee" d="M 103.703125 166.492188 C 100.96875 168.5 100.464844 171.316406 100.953125 172.898438 C 103.503906 171.90625 106.230469 170.996094 109.105469 170.179688 C 110.007812 166.992188 107.558594 164.636719 104.5 166.039062 C 104.25 166.15625 103.9375 166.347656 103.703125 166.492188 " fill-opacity="1" fill-rule="nonzero"/><path fill="#f4f3ee" d="M 101.597656 156.628906 C 103.503906 155.933594 105.8125 152.863281 105.011719 152.53125 C 104.765625 152.433594 104.269531 152.765625 103.96875 152.960938 C 102.605469 153.902344 101.40625 155.089844 100.976562 155.910156 C 100.613281 156.605469 100.863281 156.894531 101.597656 156.628906 " fill-opacity="1" fill-rule="nonzero"/><path fill="#f4f3ee" d="M 104.597656 162.117188 C 106.648438 159.570312 106 157.175781 103.996094 157.402344 C 103.285156 157.484375 102.714844 157.84375 102.335938 158.082031 C 100.046875 159.738281 99.203125 162.078125 99.335938 163.207031 C 99.59375 165.40625 102.738281 164.417969 104.597656 162.117188 " fill-opacity="1" fill-rule="nonzero"/><path fill="#f4f3ee" d="M 95.261719 173.28125 C 94.785156 173.421875 94.484375 173.675781 94.164062 173.941406 C 93.363281 174.761719 92.84375 175.78125 92.53125 176.816406 C 94.074219 175.957031 95.71875 175.136719 97.460938 174.359375 C 96.996094 173.46875 96.242188 172.996094 95.261719 173.28125 " fill-opacity="1" fill-rule="nonzero"/></svg>